PathFileType	4	(X/Y/Z)	57_1_34_p1_0-291_filt_butterworth.trc
DataRate	CameraRate	NumFrames	NumMarkers	Units	OrigDataRate	OrigDataStartFrame	OrigNumFrames
60.0	60.0	5	27	m	60.0	0	291
Frame#	Time	RHip			RKnee			RAnkle			RBigToe			RSmallToe			RHeel			LHip			LKnee			LAnkle			LBigToe			LSmallToe			LHeel			Neck			Head			Nose			RShoulder			RElbow			RWrist			RThumb			RIndex			RPinky			LShoulder			LElbow			LWrist			LThumb			LIndex			LPinky			
		X1	Y1	Z1	X2	Y2	Z2	X3	Y3	Z3	X4	Y4	Z4	X5	Y5	Z5	X6	Y6	Z6	X7	Y7	Z7	X8	Y8	Z8	X9	Y9	Z9	X10	Y10	Z10	X11	Y11	Z11	X12	Y12	Z12	X13	Y13	Z13	X14	Y14	Z14	X15	Y15	Z15	X16	Y16	Z16	X17	Y17	Z17	X18	Y18	Z18	X19	Y19	Z19	X20	Y20	Z20	X21	Y21	Z21	X22	Y22	Z22	X23	Y23	Z23	X24	Y24	Z24	X25	Y25	Z25	X26	Y26	Z26	X27	Y27	Z27	
0	0.0	0.24589699349133523	0.5848865737612028	0.9752494050896512	0.24431910658424985	0.673602397074803	1.365974209841372	0.2394051096863244	0.853161395627809	1.76300491257765	0.23292296265055903	0.6677720013467734	1.809053991280079	0.30284579137707585	0.7267238253646591	1.813108933907049	0.23079921841356466	0.9490109234118608	1.8069360615592034	0.02765461782402237	0.5870474364501397	0.9884228735715171	0.043237960221385895	0.717766284169771	1.3736717042309738	0.06936615754123915	0.8873324957129989	1.7797595718458603	0.08285796984106752	0.6614466034460788	1.8019637551930971	0.032583623210447124	0.732131492276378	1.8160994948684621	0.09248773082675979	0.9343705545052734	1.821745290714359	0.12271916714461303	0.4140192511668844	0.4358115579617176	0.12068845937868901	0.29335673994077893	0.21270411297088565	0.11396409504316113	0.23571610133479187	0.36424976073701376	0.2674944622441906	0.3995860876141603	0.5129821485080581	0.3227097144053444	0.4420082852285594	0.7596710533705753	0.17180706223538608	0.4203761785198317	0.9559275053505278	0.11416155128788774	0.3792298735514364	1.0353617099795158	0.11053435032307757	0.414742379016788	1.052712552570464	0.12255931880833408	0.44689039744795617	1.059124743139582	-0.03128270670785289	0.3849756810966307	0.5312704384159217	-0.04617634090548889	0.4550240429892001	0.7886277230858645	0.05623005237696233	0.41164695556018494	0.9609849679036744	0.13397026899656841	0.4001585940654956	1.0173552253206162	0.1345038861298239	0.4136855343529038	1.053493706848061	0.09411530672244718	0.4429373143353077	1.055773915323231
1	0.0166666666666666	0.24827187161936937	0.5756997149242019	0.9747533229206964	0.243297666502042	0.6787117498618187	1.3667814190279608	0.24427272318309812	0.8518480971488676	1.7622404032619785	0.23304596387370138	0.6676710099158593	1.8088811103928273	0.30190459059711494	0.7251291182391172	1.8104731145426642	0.23204451242963398	0.9520135471608753	1.8097347912104125	0.02812719249826985	0.5885085771964063	0.9911025615981113	0.043218817201993984	0.7192214139112225	1.376483333498978	0.0711304371302107	0.8867007674053966	1.7740899786796738	0.08111158246329032	0.6638206199766022	1.800976435059128	0.030223643242503817	0.740795055420081	1.820344146763605	0.09273530331054085	0.9343904334289739	1.8216871216549781	0.12084197426589552	0.4067614532583447	0.4371976701109907	0.12071749667044672	0.2934628131230017	0.21267750465943502	0.11397484361729648	0.23546549120370835	0.3642824168643596	0.2674664278600368	0.3995571672215574	0.5130058620584667	0.32094915315242856	0.4389155333471298	0.760353068010628	0.17105010348916094	0.4231766683290671	0.9552268615489693	0.11446482920854967	0.3785857963010552	1.0333273987968163	0.11108207635254828	0.41786967409265086	1.0500367340430075	0.12254238044712087	0.4469517544631495	1.0590203882605076	-0.031220080598297152	0.38465060576817733	0.5311833306299687	-0.043414143895710605	0.44713069550093676	0.7887600627207225	0.05741885757449666	0.4083589255826969	0.9594750083173917	0.13384241547279652	0.4013590336969673	1.018493743074171	0.13407118432422296	0.4153736791048668	1.0531668249586839	0.09730845741344807	0.44410906806290873	1.0510888756111616
2	0.0333333333333333	0.24973303799515756	0.5701911673844299	0.9745158351822998	0.24353341308582757	0.6837726126242561	1.3675327742160754	0.24721848668199908	0.8510559451342133	1.7617892401753759	0.23310878809308222	0.667711171552084	1.808798118298733	0.30154259149020096	0.7243286568782217	1.8088999728097135	0.233053626427571	0.9544137439797807	1.8124256870318236	0.02840589796285087	0.5893491264609889	0.9927414252092354	0.04222514977988275	0.7196243972229782	1.3781933900505983	0.07231603067150685	0.8867093505125916	1.7712561442761336	0.08017558815523529	0.6647161385368855	1.8010172878559993	0.028754306971909786	0.7461813183865833	1.8227328662546578	0.09289668747580673	0.9345961741627837	1.8217388273437174	0.1197082891579218	0.40239366561182366	0.43803258150228935	0.12073735741153895	0.29349021833438227	0.21267241928164426	0.11461495985083409	0.23651854574934247	0.36403378755205906	0.2674502241041626	0.3995323428490672	0.5130344982287998	0.3188543930901034	0.437915842892438	0.7613545004187144	0.17102851782223222	0.42322749547871313	0.9549275815208115	0.11465892901585284	0.37817849184832497	1.0320939409568806	0.11158773286903864	0.42033292096052277	1.0484626970487014	0.1225159722434691	0.4470369932151301	1.0589395732832492	-0.031137492563406532	0.38433751923488174	0.5312651126070204	-0.04174015673457231	0.44236675649479734	0.7888482537354933	0.057640239218903204	0.40810636426246516	0.9581783062878512	0.13379460638771073	0.4021679862812964	1.0187292950074833	0.13320898996873837	0.41846993901705604	1.0526309225942776	0.09913846891068087	0.4432434054544222	1.048276547704769
3	0.05	0.2502265334481334	0.5686618961660492	0.9745286956883475	0.2447957949328643	0.6875039853835923	1.3680856218554394	0.2480917617954595	0.8508465906841804	1.7616716188880552	0.23309230010113938	0.6678024693975325	1.8087822838389487	0.30197321431810564	0.7244449728909244	1.8084902059524581	0.23393901520104327	0.9569630220123428	1.8143093165435142	0.028467087316326165	0.5893332685435004	0.9932254097726848	0.040516756683382685	0.7189103056508979	1.3786544819563453	0.07293130474130366	0.8875801454735652	1.7717454591571151	0.0802463809093281	0.663533011003282	1.8016512082723173	0.02817312367027013	0.748171261205524	1.8230708288633743	0.0929837899447442	0.9349450626365519	1.8218877603795878	0.11938068053027913	0.4011543768541701	0.43827359948759637	0.12074713110116761	0.2934245374754877	0.2126929125700941	0.1160076694535919	0.23948337216948845	0.3633787774457327	0.26745110901937463	0.3995280176750178	0.5130653529252395	0.3168605921094438	0.4395884905481968	0.7624839012289645	0.1714871535456264	0.4215094856116805	0.9551772545643443	0.11472031771661166	0.37804340839069756	1.0317312131028464	0.11210962945756457	0.4226213980050688	1.0481030741691322	0.12249403432808303	0.4470546602303248	1.058907997617383	-0.03114445959831829	0.38441601169009426	0.5317226658743844	-0.04124285492305943	0.44120230772676405	0.7888723926682745	0.057265344914242275	0.4099310532447682	0.9573900871777726	0.1337106385409228	0.40222598629754347	1.0182873038935998	0.1320830213656105	0.4224454896523864	1.051738938023455	0.09996746979184042	0.44119448362160696	1.0474602871654417
4	0.0666666666666666	0.25023577086878035	0.569012903265862	0.9746199401652972	0.2460195204936607	0.6889458496600747	1.3683570773941387	0.24794952635031414	0.8509526088183569	1.7617122777206664	0.23299178625478736	0.6676879766770071	1.8087538978516806	0.3026941691546619	0.7249325610780445	1.8086738958829247	0.23516074008478735	0.9615106924989915	1.8150226684014181	0.02839586268052273	0.5886161394218881	0.9930954602662869	0.03922888759078	0.7176665574633927	1.378335448414623	0.07327131254383476	0.8888601035563723	1.7738501143682046	0.08078911118855714	0.6615114402831841	1.801736218780438	0.0279731876047912	0.7485450510724015	1.8222894112810128	0.09305698422507992	0.9351945071958084	1.822009550706597	0.11945053418993062	0.40145458396650513	0.438230043433286	0.1207469936585887	0.2933287219438966	0.2127240487458664	0.11737506050792129	0.2433046045211562	0.3625648439915153	0.26746568363401446	0.3995552065457402	0.5130919017494995	0.31560115917241016	0.44223824549856194	0.7632824294258843	0.17184100857166185	0.42019565825792665	0.9556324390141508	0.11469011615858624	0.3780835305042405	1.0318031086940178	0.11253100799001604	0.4246577010145457	1.048319418967945	0.12246978127691854	0.44683762273142325	1.0589020103628874	-0.03155950303179027	0.38579051938187525	0.5325191885165674	-0.041331947411706586	0.4423704670379587	0.788823842453187	0.057302815326426323	0.4107195212755619	0.9571550044692037	0.13333146534330004	0.40080374462767676	1.017825320493035	0.131252859705559	0.4253550743916114	1.0506628697050668	0.10089264301714117	0.4395517955243572	1.0473815775759168
